<?xml version="1.0" encoding="UTF-8" standalone="no"?>
<!-- Generator: Adobe Illustrator 16.0.0, SVG Export Plug-In . SVG Version: 6.00 Build 0)  -->

<svg
   xmlns:dc="http://purl.org/dc/elements/1.1/"
   xmlns:cc="http://creativecommons.org/ns#"
   xmlns:rdf="http://www.w3.org/1999/02/22-rdf-syntax-ns#"
   xmlns:svg="http://www.w3.org/2000/svg"
   xmlns="http://www.w3.org/2000/svg"
   xmlns:sodipodi="http://sodipodi.sourceforge.net/DTD/sodipodi-0.dtd"
   xmlns:inkscape="http://www.inkscape.org/namespaces/inkscape"
   version="1.1"
   id="root"
   x="0px"
   y="0px"
   width="3840"
   height="2160"
   viewBox="0 0 3840 2160"
   enable-background="new 0 0 1920 1080"
   xml:space="preserve"
   inkscape:version="0.92.0 r15299"
   sodipodi:docname="3840x2160.svg"
   inkscape:export-filename=""
   inkscape:export-xdpi="120"
   inkscape:export-ydpi="120"><metadata
     id="metadata4579"><rdf:RDF><cc:Work
         rdf:about=""><dc:format>image/svg+xml</dc:format><dc:type
           rdf:resource="http://purl.org/dc/dcmitype/StillImage" /><dc:title></dc:title></cc:Work></rdf:RDF></metadata><defs
     id="defs4577" /><sodipodi:namedview
     pagecolor="#ffffff"
     bordercolor="#666666"
     borderopacity="1"
     objecttolerance="10"
     gridtolerance="10"
     guidetolerance="10"
     inkscape:pageopacity="0"
     inkscape:pageshadow="2"
     inkscape:window-width="1920"
     inkscape:window-height="1013"
     id="namedview4575"
     showgrid="false"
     borderlayer="true"
     inkscape:zoom="0.1767767"
     inkscape:cx="807.14014"
     inkscape:cy="427.11108"
     inkscape:window-x="0"
     inkscape:window-y="34"
     inkscape:window-maximized="1"
     inkscape:current-layer="root"
     fit-margin-top="0"
     fit-margin-left="0"
     fit-margin-right="0"
     fit-margin-bottom="0" /><g
     display="none"
     id="g4465"
     style="display:none;opacity:0.5"
     transform="translate(843.40845,617.09438)"><rect
       x="1020.368"
       y="292.37399"
       display="inline"
       width="227.175"
       height="82.924004"
       id="rect4467"
       style="display:inline;fill:none" /><text
       transform="translate(1020.3711,356.9102)"
       display="inline"
       font-size="86.6248"
       id="text4469"
       style="font-size:86.62480164px;font-family:Poppl-Laudatio-Condensed;display:inline;fill:#ffffff">debian</text>
<rect
       x="1020.368"
       y="376.03601"
       display="inline"
       width="134.293"
       height="36.896"
       id="rect4471"
       style="display:inline;fill:none" /><text
       transform="translate(1020.3711,397.5488)"
       display="inline"
       font-size="28.8749"
       id="text4473"
       style="font-size:28.87490082px;font-family:Poppl-Laudatio-Condensed;display:inline;fill:#ffffff">GNU/Linux</text>
</g><linearGradient
     id="SVGID_12_"
     gradientUnits="userSpaceOnUse"
     x1="209.12891"
     y1="1119.168"
     x2="1577.8721"
     y2="1119.168"
     gradientTransform="matrix(0.9907,-0.4864,0.4732,0.9638,-451.6389,-64.9346)"><stop
       offset="0"
       style="stop-color:#ABCCB3;stop-opacity:0.7"
       id="stop4478" /><stop
       offset="0.33"
       style="stop-color:#B4CFB5;stop-opacity:0.05"
       id="stop4480" /><stop
       offset="0.803"
       style="stop-color:#C1D4B7;stop-opacity:0.5"
       id="stop4482" /><stop
       offset="1"
       style="stop-color:#FEF9C8;stop-opacity:0"
       id="stop4484" /></linearGradient><g
     id="g4799"
     transform="matrix(2.00001,0,0,2.00001,0.49999584,-2.5108203)"><g
       id="Layer_1"><g
         id="background_1_"><linearGradient
           gradientTransform="matrix(1,0,0,-1,2258.5,2151.3984)"
           y2="1001.3118"
           x2="-1297.709"
           y1="2199.0771"
           x1="-1297.7085"
           gradientUnits="userSpaceOnUse"
           id="SVGID_1_"><stop
             id="stop4372"
             style="stop-color:#133356"
             offset="0" /><stop
             id="stop4374"
             style="stop-color:#7C9999"
             offset="0.5025" /><stop
             id="stop4376"
             style="stop-color:#333333"
             offset="1" /></linearGradient><rect
           id="rect4378"
           height="1200.004"
           width="1921.5"
           y="-50.563999"
           x="0.041000001"
           style="fill:url(#SVGID_1_)" /></g><g
         id="Layer_4"><radialGradient
           gradientUnits="userSpaceOnUse"
           gradientTransform="matrix(0.9956,0,0,-1.1148,2256.8586,2168.624)"
           r="942.22388"
           cy="1478.5107"
           cx="-1392.7373"
           id="SVGID_2_"><stop
             id="stop4382"
             style="stop-color:#E4C8A5;stop-opacity:0.5"
             offset="0" /><stop
             id="stop4384"
             style="stop-color:#AEAB93;stop-opacity:0.4372"
             offset="0.1429" /><stop
             id="stop4386"
             style="stop-color:#587E77;stop-opacity:0.3331"
             offset="0.3797" /><stop
             id="stop4388"
             style="stop-color:#366C6C;stop-opacity:0.2857"
             offset="0.4877" /></radialGradient><rect
           id="rect4390"
           height="1204.069"
           width="1923"
           y="-49.444"
           x="-1.459"
           style="fill:url(#SVGID_2_)" /></g></g><g
       id="glows"><radialGradient
         gradientUnits="userSpaceOnUse"
         gradientTransform="matrix(1,0,0,-1,2258.5,2151.3984)"
         r="279.2085"
         cy="1608.8936"
         cx="-766.47272"
         id="SVGID_3_"><stop
           id="stop4394"
           style="stop-color:#FFFCDD"
           offset="0" /><stop
           id="stop4396"
           style="stop-color:#FEF9C8;stop-opacity:0"
           offset="1" /></radialGradient><circle
         id="circle4398"
         r="279.20901"
         cy="542.505"
         cx="1492.027"
         enable-background="new    "
         style="opacity:0.2;fill:url(#SVGID_3_)" /><radialGradient
         gradientUnits="userSpaceOnUse"
         gradientTransform="matrix(1,0,0,-1,2258.5,2151.3984)"
         r="221.0005"
         cy="1704.9805"
         cx="-921.53522"
         id="SVGID_4_"><stop
           id="stop4401"
           style="stop-color:#99CCCC"
           offset="0" /><stop
           id="stop4403"
           style="stop-color:#FEF9C8;stop-opacity:0"
           offset="1" /></radialGradient><circle
         id="circle4405"
         r="221.00101"
         cy="446.418"
         cx="1336.965"
         enable-background="new    "
         style="opacity:0.2;fill:url(#SVGID_4_)" /><radialGradient
         gradientUnits="userSpaceOnUse"
         gradientTransform="matrix(1,0,0,-1,2258.5,2151.3984)"
         r="293.0015"
         cy="1742.9814"
         cx="-1875.459"
         id="SVGID_5_"><stop
           id="stop4408"
           style="stop-color:#FFFCDD"
           offset="0" /><stop
           id="stop4410"
           style="stop-color:#FEF9C8;stop-opacity:0"
           offset="1" /></radialGradient><circle
         id="circle4412"
         r="293.00201"
         cy="408.41699"
         cx="383.04099"
         enable-background="new    "
         style="opacity:0.1;fill:url(#SVGID_5_)" /><radialGradient
         gradientUnits="userSpaceOnUse"
         gradientTransform="matrix(1,0,0,-1,2258.5,2151.3984)"
         r="293.0015"
         cy="1553.9365"
         cx="-1687.459"
         id="SVGID_6_"><stop
           id="stop4415"
           style="stop-color:#FFFCDD"
           offset="0" /><stop
           id="stop4417"
           style="stop-color:#FEF9C8;stop-opacity:0"
           offset="1" /></radialGradient><circle
         id="circle4419"
         r="293.00201"
         cy="597.46198"
         cx="571.04102"
         enable-background="new    "
         style="opacity:0.1;fill:url(#SVGID_6_)" /><radialGradient
         gradientUnits="userSpaceOnUse"
         gradientTransform="matrix(1,0,0,-1,2258.5,2151.3984)"
         r="374.83151"
         cy="1461.1025"
         cx="-1591.124"
         id="SVGID_7_"><stop
           id="stop4422"
           style="stop-color:#FFFCDD"
           offset="0" /><stop
           id="stop4424"
           style="stop-color:#FEF9C8;stop-opacity:0"
           offset="1" /></radialGradient><circle
         id="circle4426"
         r="374.832"
         cy="690.29602"
         cx="667.37598"
         enable-background="new    "
         style="opacity:0.1;fill:url(#SVGID_7_)" /><radialGradient
         gradientUnits="userSpaceOnUse"
         gradientTransform="matrix(1,0,0,-1,2258.5,2151.3984)"
         r="374.83151"
         cy="1538.8691"
         cx="-979.62891"
         id="SVGID_8_"><stop
           id="stop4429"
           style="stop-color:#FFFCDD"
           offset="0" /><stop
           id="stop4431"
           style="stop-color:#FEF9C8;stop-opacity:0"
           offset="1" /></radialGradient><circle
         id="circle4433"
         r="374.832"
         cy="612.52899"
         cx="1278.871"
         enable-background="new    "
         style="opacity:0.1;fill:url(#SVGID_8_)" /><radialGradient
         gradientUnits="userSpaceOnUse"
         gradientTransform="matrix(1,0,0,-1,2258.5,2151.3984)"
         r="374.83151"
         cy="1688.8691"
         cx="-1626.2715"
         id="SVGID_9_"><stop
           id="stop4436"
           style="stop-color:#99CCCC"
           offset="0" /><stop
           id="stop4438"
           style="stop-color:#FEF9C8;stop-opacity:0"
           offset="1" /></radialGradient><circle
         id="circle4440"
         r="374.832"
         cy="462.53"
         cx="632.229"
         enable-background="new    "
         style="opacity:0.2;fill:url(#SVGID_9_)" /><radialGradient
         gradientUnits="userSpaceOnUse"
         gradientTransform="matrix(1,0,0,-1,2258.5,2151.3984)"
         r="374.83151"
         cy="1670.8691"
         cx="-691.9707"
         id="SVGID_10_"><stop
           id="stop4443"
           style="stop-color:#FFFCDD"
           offset="0" /><stop
           id="stop4445"
           style="stop-color:#FEF9C8;stop-opacity:0"
           offset="1" /></radialGradient><circle
         id="circle4447"
         r="374.832"
         cy="480.52899"
         cx="1566.5291"
         enable-background="new    "
         style="opacity:0.2;fill:url(#SVGID_10_)" /><radialGradient
         gradientUnits="userSpaceOnUse"
         gradientTransform="matrix(1,0,0,-1,2258.5,2151.3984)"
         r="374.83151"
         cy="1406.8701"
         cx="-801.80078"
         id="SVGID_11_"><stop
           id="stop4450"
           style="stop-color:#99CCCC"
           offset="0" /><stop
           id="stop4452"
           style="stop-color:#FEF9C8;stop-opacity:0"
           offset="1" /></radialGradient><circle
         id="circle4454"
         r="374.832"
         cy="744.52802"
         cx="1456.699"
         enable-background="new    "
         style="opacity:0.2;fill:url(#SVGID_11_)" /></g><g
       id="rounds"><path
         id="path4457"
         d="M 908.021,607.948"
         stroke-miterlimit="10"
         inkscape:connector-curvature="0"
         style="fill:none;stroke:#ffffff;stroke-width:2;stroke-miterlimit:10" /><circle
         id="circle4459"
         r="13.107"
         cy="470.659"
         cx="1835.511"
         enable-background="new    "
         style="opacity:0.5;fill:#ffffff" /><circle
         id="circle4461"
         r="13.109"
         cy="708.70398"
         cx="1800.964"
         enable-background="new    "
         style="opacity:0.3;fill:#ffffff" /><circle
         id="circle4463"
         r="13.108"
         cy="238.75301"
         cx="1737.661"
         enable-background="new    "
         style="opacity:0.9;fill:#ffffff" /></g><circle
       id="circle4475"
       r="13.109"
       cy="914.34302"
       cx="1673.134"
       enable-background="new    "
       style="opacity:0.1;fill:#ffffff" /><path
       id="path4486"
       d="m 1710.603,387.703 c 0,0 32.104,156.54 -101.521,293.831 C 1367.813,952.113 1069.44,788.138 841.212,590.664 821.039,573.209 770.322,528.997 679.299,441.245 559.079,325.339 489.304,357.179 350.712,460.231 141.408,628.275 98.272,501.581 94.546,489.679 l -3.627,24.725 c 3.723,11.901 46.864,138.599 256.167,-29.448 130.374,-102.068 217.179,-104.568 311.048,-17.616 93.873,86.957 98.371,89.729 185.754,169.392 299.791,273.316 518.084,333.447 771.016,110.89 133.62,-137.296 95.699,-359.919 95.699,-359.919"
       style="fill:url(#SVGID_12_)"
       inkscape:connector-curvature="0" /><g
       id="octopus_3_"><radialGradient
         gradientUnits="userSpaceOnUse"
         gradientTransform="matrix(1.4647,0.5424,-0.5668,1.7245,6457.6665,2430.6887)"
         r="805.54938"
         cy="-34.646"
         cx="-3606.8699"
         id="SVGID_13_"><stop
           id="stop4490"
           style="stop-color:#99CCCC"
           offset="0" /><stop
           id="stop4492"
           style="stop-color:#FEF9C8;stop-opacity:0"
           offset="1" /></radialGradient><path
         id="path4494"
         d="m 1581.42,198.014 c 0,0 64.824,223.599 -38.288,397.275 -174.309,293.575 -401.128,266.827 -711.52,50.015 C 284.668,263.241 134.033,547.453 127.574,582.287 l -1.853,-2.068 c 6.461,-34.84 144.659,-384.596 691.612,-2.531 310.38,216.817 537.198,243.565 711.507,-50.013 103.118,-173.68 52.58,-329.661 52.58,-329.661"
         enable-background="new    "
         style="opacity:0.2;fill:url(#SVGID_13_)"
         inkscape:connector-curvature="0" /><radialGradient
         gradientUnits="userSpaceOnUse"
         gradientTransform="matrix(1.4173,0.672,-0.6766,1.6781,6475.1831,2452.2529)"
         r="692.15527"
         cy="395.64499"
         cx="-3658.4658"
         id="SVGID_14_"><stop
           id="stop4497"
           style="stop-color:#FFFCDD"
           offset="0" /><stop
           id="stop4499"
           style="stop-color:#FEF9C8;stop-opacity:0"
           offset="1" /></radialGradient><path
         id="path4501"
         d="m 1601.01,281.413 c 0,0 49.496,229.743 -64.317,394.713 C 1344.289,954.993 1121.013,908.271 827.429,663.761 310.079,232.901 109.551,546.26 100.833,580.598 l 1.451,0.781 c 1.821,-64.225 198.103,-417.482 715.449,13.379 293.588,244.509 516.854,291.222 709.261,12.363 113.819,-164.974 74.016,-325.708 74.016,-325.708"
         enable-background="new    "
         style="opacity:0.1;fill:url(#SVGID_14_)"
         inkscape:connector-curvature="0" /><radialGradient
         gradientUnits="userSpaceOnUse"
         gradientTransform="matrix(1.4792,0.4962,-0.5276,1.7383,6453.3857,2423.6484)"
         r="259.32779"
         cy="-96.178703"
         cx="-3648.606"
         id="SVGID_15_"><stop
           id="stop4504"
           style="stop-color:#065E7F"
           offset="0" /><stop
           id="stop4506"
           style="stop-color:#FEF9C8;stop-opacity:0"
           offset="1" /></radialGradient><path
         id="path4508"
         d="m 1553.541,133.244 c 0,0 70.093,221.152 -29.146,397.626 -167.743,298.326 -395.49,278.588 -711.32,71.755 -13.854,-9.076 -619.949,-531.397 -721.01,92.941 l 12.64,-136.228 c 5.663,-34.963 135.946,-388.227 692.495,-23.75 315.831,206.837 543.58,226.565 711.327,-71.75 99.229,-176.484 45.014,-330.594 45.014,-330.594"
         enable-background="new    "
         style="opacity:0.5;fill:url(#SVGID_15_)"
         inkscape:connector-curvature="0" /></g><g
       id="bubble"><radialGradient
         gradientUnits="userSpaceOnUse"
         gradientTransform="matrix(2.398,0,0,-2.4744,4647.9561,3324.3628)"
         r="70.523697"
         cy="939.73541"
         cx="-1897.6162"
         id="SVGID_16_"><stop
           id="stop4512"
           style="stop-color:#AEAB93;stop-opacity:0.4372"
           offset="0.0592" /><stop
           id="stop4514"
           style="stop-color:#587E77;stop-opacity:0.3331"
           offset="0.5718" /><stop
           id="stop4516"
           style="stop-color:#366C6C;stop-opacity:0"
           offset="1" /></radialGradient><ellipse
         id="ellipse4518"
         ry="174.502"
         rx="169.118"
         cy="999.08002"
         cx="97.473"
         style="fill:url(#SVGID_16_)" /><radialGradient
         gradientUnits="userSpaceOnUse"
         gradientTransform="matrix(2.398,0,0,-2.4744,4647.9561,3324.3628)"
         r="103.0393"
         cy="925.29883"
         cx="-1942.6294"
         id="SVGID_17_"><stop
           id="stop4521"
           style="stop-color:#587E77;stop-opacity:0.3331"
           offset="3.896629e-004" /><stop
           id="stop4523"
           style="stop-color:#AEAB93;stop-opacity:0.3"
           offset="0.5616" /><stop
           id="stop4525"
           style="stop-color:#366C6C;stop-opacity:0"
           offset="1" /></radialGradient><path
         id="path4527"
         d="m -10.47,779.844 c 136.465,0 247.092,114.148 247.092,254.955 0,140.813 -110.626,254.963 -247.092,254.963 -136.465,0 -247.091,-114.149 -247.091,-254.963 0,-140.808 110.626,-254.955 247.091,-254.955 z"
         style="fill:url(#SVGID_17_)"
         inkscape:connector-curvature="0" /><radialGradient
         gradientUnits="userSpaceOnUse"
         gradientTransform="matrix(3.1212,0,0,-3.2305,5610.6348,3728.9705)"
         r="103.0373"
         cy="884.44141"
         cx="-1721.7773"
         id="SVGID_18_"><stop
           id="stop4530"
           style="stop-color:#587E77;stop-opacity:0.3331"
           offset="3.896629e-004" /><stop
           id="stop4532"
           style="stop-color:#AEAB93;stop-opacity:0.1"
           offset="0.5468" /><stop
           id="stop4534"
           style="stop-color:#366C6C;stop-opacity:0"
           offset="0.67" /></radialGradient><path
         id="path4536"
         d="m 236.623,538.923 c 177.613,0 321.599,149.024 321.599,332.857 0,183.842 -143.986,332.865 -321.599,332.865 -177.615,0 -321.601,-149.023 -321.601,-332.865 0,-183.832 143.986,-332.857 321.601,-332.857 z"
         style="fill:url(#SVGID_18_)"
         inkscape:connector-curvature="0" /><circle
         id="circle4538"
         r="13.109"
         cy="708.70398"
         cx="1800.964"
         enable-background="new    "
         style="opacity:0.3;fill:#ffffff" /><linearGradient
         gradientTransform="matrix(2.398,0,0,-2.4744,4647.9561,3324.3628)"
         y2="1133.6904"
         x2="-1505.2378"
         y1="1133.6904"
         x1="-1617.2939"
         gradientUnits="userSpaceOnUse"
         id="SVGID_19_"><stop
           id="stop4541"
           style="stop-color:#99CCCC;stop-opacity:0"
           offset="0.5468" /><stop
           id="stop4543"
           style="stop-color:#C8E1CA;stop-opacity:0.8"
           offset="0.7931" /><stop
           id="stop4545"
           style="stop-color:#FEF9C8;stop-opacity:0"
           offset="1" /></linearGradient><ellipse
         id="ellipse4547"
         ry="138.636"
         rx="134.355"
         cy="519.15802"
         cx="904.03998"
         enable-background="new    "
         style="opacity:0.1;fill:url(#SVGID_19_)" /></g><g
       id="logoGroup_1_"
       style="opacity:0.8"><g
         enable-background="new    "
         id="logo_1_"><path
           id="path4551"
           d="m 1243.667,361.05 c -4.203,0.056 0.798,2.162 6.293,3.012 1.52,-1.188 2.889,-2.382 4.112,-3.549 -3.412,0.834 -6.892,0.857 -10.405,0.537"
           inkscape:connector-curvature="0"
           style="fill:#ffffff" /><path
           id="path4553"
           d="m 1266.243,355.423 c 2.51,-3.467 4.335,-7.244 4.982,-11.156 -0.565,2.784 -2.075,5.188 -3.505,7.739 -7.863,4.956 -0.745,-2.938 0,-5.943 -8.45,10.646 -1.165,6.382 -1.473,9.36"
           inkscape:connector-curvature="0"
           style="fill:#ffffff" /><path
           id="path4555"
           d="m 1274.583,333.729 c 0.511,-7.572 -1.486,-5.172 -2.161,-2.291 0.783,0.416 1.404,5.345 2.161,2.291"
           inkscape:connector-curvature="0"
           style="fill:#ffffff" /><path
           id="path4557"
           d="m 1227.711,230.187 c 2.249,0.405 4.854,0.711 4.479,1.253 2.464,-0.55 3.021,-1.037 -4.479,-1.253"
           inkscape:connector-curvature="0"
           style="fill:#ffffff" /><path
           id="path4559"
           d="m 1232.188,231.432 -1.575,0.332 1.477,-0.139 0.098,-0.193"
           inkscape:connector-curvature="0"
           style="fill:#ffffff" /><path
           id="path4561"
           d="m 1302.213,336.606 c 0.251,6.8 -1.992,10.104 -4.016,15.951 l -3.636,1.813 c -2.978,5.778 0.298,3.671 -1.842,8.265 -4.646,4.13 -14.095,12.925 -17.107,13.729 -2.211,-0.049 1.49,-2.609 1.98,-3.608 -6.223,4.271 -4.994,6.409 -14.506,9.009 l -0.28,-0.624 c -23.454,11.038 -56.027,-10.83 -55.605,-40.667 -0.247,1.895 -0.711,1.424 -1.229,2.186 -1.213,-15.348 7.098,-30.759 21.088,-37.067 13.689,-6.772 29.743,-4.005 39.541,5.151 -5.385,-7.054 -16.104,-14.532 -28.808,-13.843 -12.447,0.204 -24.092,8.117 -27.981,16.7 -6.377,4.017 -7.119,15.473 -9.896,17.573 -3.737,27.478 7.03,39.343 25.258,53.308 2.861,1.939 0.807,2.229 1.188,3.702 -6.055,-2.827 -11.594,-7.112 -16.152,-12.349 2.419,3.53 5.028,6.97 8.404,9.68 -5.714,-1.931 -13.343,-13.832 -15.563,-14.317 9.844,17.62 39.914,30.898 55.682,24.306 -7.296,0.273 -16.556,0.152 -24.743,-2.879 -3.448,-1.773 -8.12,-5.433 -7.29,-6.115 21.505,8.026 43.706,6.076 62.307,-8.836 4.734,-3.686 9.906,-9.953 11.398,-10.04 -2.254,3.388 0.386,1.629 -1.347,4.611 4.709,-7.601 -2.051,-3.097 4.87,-13.125 l 2.563,3.515 c -0.956,-6.317 7.844,-13.979 6.942,-23.959 2.021,-3.054 2.247,3.287 0.109,10.302 2.973,-7.791 0.791,-9.039 1.547,-15.474 0.815,2.163 1.908,4.463 2.461,6.737 -1.931,-7.527 1.984,-12.669 2.952,-17.048 -0.96,-0.422 -2.984,3.326 -3.453,-5.56 0.072,-3.866 1.077,-2.027 1.466,-2.979 -0.752,-0.437 -2.738,-3.4 -3.949,-9.077 0.872,-1.332 2.346,3.459 3.531,3.653 -0.76,-4.51 -2.084,-7.955 -2.146,-11.42 -3.486,-7.292 -1.236,0.975 -4.06,-3.128 -3.718,-11.587 3.075,-2.688 3.545,-7.951 5.623,8.155 8.826,20.791 10.302,26.025 -1.128,-6.38 -2.938,-12.563 -5.161,-18.548 1.712,0.726 -2.766,-13.128 2.221,-3.954 -5.317,-19.554 -22.746,-37.825 -38.776,-46.394 1.954,1.792 4.438,4.045 3.551,4.401 -7.979,-4.739 -6.58,-5.116 -7.721,-7.124 -6.493,-2.641 -6.926,0.218 -11.214,0.012 -12.247,-6.5 -14.606,-5.809 -25.877,-9.88 l 0.506,2.407 c -8.104,-2.709 -9.448,1.01 -18.222,0.007 -0.521,-0.42 2.819,-1.51 5.567,-1.909 -7.841,1.038 -7.472,-1.548 -15.146,0.289 1.886,-1.326 3.891,-2.212 5.908,-3.335 -6.391,0.391 -15.271,3.72 -12.533,0.682 -10.435,4.661 -28.961,11.194 -39.358,20.942 l -0.326,-2.185 c -4.761,5.723 -20.772,17.078 -22.051,24.497 l -1.271,0.289 c -2.478,4.2 -4.086,8.957 -6.049,13.271 -3.246,5.529 -4.756,2.13 -4.293,2.995 -6.377,12.931 -9.549,23.788 -12.285,32.708 1.952,2.906 0.045,17.542 0.788,29.25 -3.202,57.837 40.588,114.001 88.457,126.958 7.013,2.521 17.448,2.423 26.318,2.673 -10.468,-2.991 -11.821,-1.586 -22.021,-5.148 -7.355,-3.464 -8.971,-7.413 -14.182,-11.942 l 2.06,3.642 c -10.216,-3.619 -5.937,-4.477 -14.26,-7.11 l 2.209,-2.873 c -3.313,-0.249 -8.777,-5.577 -10.269,-8.539 l -3.63,0.146 c -4.349,-5.366 -6.676,-9.241 -6.498,-12.246 l -1.176,2.09 c -1.328,-2.272 -16.018,-20.15 -8.396,-15.989 -1.416,-1.293 -3.304,-2.104 -5.338,-5.818 l 1.548,-1.765 c -3.661,-4.716 -6.756,-10.778 -6.516,-12.792 1.957,2.642 3.313,3.137 4.658,3.59 -9.261,-22.986 -9.784,-1.262 -16.8,-23.393 l 1.489,-0.119 c -1.139,-1.726 -1.833,-3.573 -2.746,-5.402 l 0.648,-6.434 c -6.665,-7.699 -1.859,-32.783 -0.898,-46.535 0.666,-5.594 5.565,-11.549 9.293,-20.887 l -2.273,-0.392 c 4.348,-7.563 24.782,-30.404 34.257,-29.233 4.587,-5.759 -0.915,-0.021 -1.813,-1.467 10.081,-10.426 13.244,-7.363 20.044,-9.248 7.331,-4.344 -6.29,1.704 -2.816,-1.649 12.676,-3.239 8.983,-7.359 25.519,-9.003 1.743,0.988 -4.043,1.529 -5.494,2.813 10.558,-5.168 33.418,-3.985 48.271,2.868 17.228,8.06 36.578,31.86 37.346,54.245 l 0.869,0.23 c -0.432,8.9 1.369,19.196 -1.764,28.652 l 2.121,-4.494"
           inkscape:connector-curvature="0"
           style="fill:#ffffff" /><path
           id="path4563"
           d="m 1197.748,366.819 -0.592,2.95 c 2.761,3.756 4.96,7.833 8.489,10.753 -2.541,-4.945 -4.425,-6.997 -7.897,-13.703"
           inkscape:connector-curvature="0"
           style="fill:#ffffff" /><path
           id="path4565"
           d="m 1204.283,366.565 c -1.468,-1.614 -2.331,-3.565 -3.307,-5.504 0.932,3.411 2.834,6.34 4.599,9.327 l -1.292,-3.823"
           inkscape:connector-curvature="0"
           style="fill:#ffffff" /><path
           id="path4567"
           d="m 1319.947,341.426 -0.607,1.553 c -1.129,8.048 -3.589,16.013 -7.336,23.396 4.142,-7.793 6.809,-16.313 7.943,-24.949"
           inkscape:connector-curvature="0"
           style="fill:#ffffff" /><path
           id="path4569"
           d="m 1228.548,228.167 c 2.842,-1.036 6.989,-0.57 10.014,-1.258 -3.939,0.336 -7.854,0.532 -11.719,1.021 l 1.705,0.237"
           inkscape:connector-curvature="0"
           style="fill:#ffffff" /><path
           id="path4571"
           d="m 1128.68,281.271 c 0.657,6.064 -4.561,8.419 1.151,4.416 3.07,-6.907 -1.19,-1.907 -1.151,-4.416"
           inkscape:connector-curvature="0"
           style="fill:#ffffff" /><path
           id="path4573"
           d="m 1121.957,309.351 c 1.315,-4.043 1.562,-6.473 2.063,-8.813 -3.645,4.655 -1.682,5.645 -2.063,8.813"
           inkscape:connector-curvature="0"
           style="fill:#ffffff" /></g></g></g><rect
     style="fill:none;fill-rule:evenodd;stroke:none;stroke-width:3px;stroke-linecap:butt;stroke-linejoin:miter;stroke-opacity:1"
     id="rect4910"
     width="3840.019"
     height="2160.0107"
     x="2.5"
     y="-2.5108032" /></svg>