<?xml version="1.0" encoding="UTF-8" standalone="no"?>
<!-- Created with Inkscape (http://www.inkscape.org/) -->

<svg
   xmlns:ns2="http://ns.adobe.com/AdobeIllustrator/10.0/"
   xmlns:dc="http://purl.org/dc/elements/1.1/"
   xmlns:cc="http://creativecommons.org/ns#"
   xmlns:rdf="http://www.w3.org/1999/02/22-rdf-syntax-ns#"
   xmlns:svg="http://www.w3.org/2000/svg"
   xmlns="http://www.w3.org/2000/svg"
   xmlns:xlink="http://www.w3.org/1999/xlink"
   xmlns:sodipodi="http://sodipodi.sourceforge.net/DTD/sodipodi-0.dtd"
   xmlns:inkscape="http://www.inkscape.org/namespaces/inkscape"
   width="3840"
   height="2160"
   viewBox="33.87 0 1016 571.5"
   version="1.1"
   id="svg8"
   inkscape:version="0.92.4 (5da689c313, 2019-01-14)"
   sodipodi:docname="3840x2160.svg"
   inkscape:export-filename="C:\Users\xine\Documents\2018-debian-buster\futurePrototype\futurePrototype-wallpaper-02-4096x2160.png"
   inkscape:export-xdpi="96"
   inkscape:export-ydpi="96">
  <defs
     id="defs2">
    <linearGradient
       inkscape:collect="always"
       id="linearGradient873">
      <stop
         style="stop-color:#0c1830;stop-opacity:1"
         offset="0"
         id="stop869" />
      <stop
         style="stop-color:#5f7794;stop-opacity:1"
         offset="1"
         id="stop871" />
    </linearGradient>
    <linearGradient
       inkscape:collect="always"
       xlink:href="#linearGradient873"
       id="linearGradient875"
       x1="535.66125"
       y1="-265.37906"
       x2="535.66125"
       y2="297.17203"
       gradientUnits="userSpaceOnUse"
       gradientTransform="translate(-8.1445312e-5,274.50004)" />
  </defs>
  <sodipodi:namedview
     id="base"
     pagecolor="#ffffff"
     bordercolor="#b20eb2"
     borderopacity="1"
     inkscape:pageopacity="0.0"
     inkscape:pageshadow="2"
     inkscape:zoom="0.21475607"
     inkscape:cx="1979.4064"
     inkscape:cy="874.07061"
     inkscape:document-units="px"
     inkscape:current-layer="layer1"
     showgrid="false"
     units="px"
     borderlayer="true"
     inkscape:showpageshadow="false"
     showborder="true"
     inkscape:window-width="1920"
     inkscape:window-height="1008"
     inkscape:window-x="0"
     inkscape:window-y="36"
     inkscape:window-maximized="1"
     inkscape:snap-bbox="true"
     inkscape:bbox-paths="true"
     inkscape:bbox-nodes="true"
     inkscape:snap-bbox-edge-midpoints="true"
     inkscape:snap-bbox-midpoints="true"
     inkscape:snap-page="true"
     inkscape:snap-nodes="true"
     inkscape:snap-global="false"
     inkscape:object-paths="true"
     inkscape:snap-intersection-paths="true"
     inkscape:snap-smooth-nodes="true"
     inkscape:snap-others="true"
     fit-margin-left="0"
     viewbox-x="33.87"
     fit-margin-top="0"
     fit-margin-right="0"
     fit-margin-bottom="0" />
  <metadata
     id="metadata5">
    <rdf:RDF>
      <cc:Work
         rdf:about="">
        <dc:format>image/svg+xml</dc:format>
        <dc:type
           rdf:resource="http://purl.org/dc/dcmitype/StillImage" />
        <dc:title></dc:title>
      </cc:Work>
    </rdf:RDF>
  </metadata>
  <g
     inkscape:groupmode="layer"
     id="layer2"
     inkscape:label="back"
     style="display:inline">
    <rect
       inkscape:export-ydpi="96"
       inkscape:export-xdpi="96"
       y="0"
       x="0"
       height="571.5"
       width="1083.7333"
       id="rect1009"
       style="display:inline;opacity:1;fill:url(#linearGradient875);fill-opacity:1;fill-rule:nonzero;stroke:none;stroke-width:6.98096466;stroke-linecap:butt;stroke-linejoin:round;stroke-miterlimit:4;stroke-dasharray:none;stroke-dashoffset:0;stroke-opacity:1;paint-order:normal;enable-background:new"
       inkscape:export-filename="C:\Users\xine\Documents\2018-debian-buster\futurePrototype-source\desktop-wallpaper\png\wallpaper-4096x2160.png" />
  </g>
  <g
     inkscape:label="buster"
     inkscape:groupmode="layer"
     id="layer1"
     transform="translate(0,274.50001)"
     style="display:inline">
    <g
       id="g850"
       inkscape:export-filename="C:\Users\xine\Documents\2018-debian-buster\futurePrototype-source\desktop-wallpaper\png\wallpaper-4096x2160.png"
       inkscape:export-xdpi="96"
       inkscape:export-ydpi="96">
      <path
         transform="matrix(0.26458333,0,0,0.26458333,0,-274.50001)"
         inkscape:connector-curvature="0"
         id="rect6945"
         d="m 4096,213.4043 c -181.398,49.84648 -356.9629,122.70831 -521.1699,217.33398 -280.0429,161.37687 -528.7374,387.17968 -702.1231,667.63472 -173.3857,280.4551 -268.7325,616.7129 -247.5468,949.6875 2.3768,37.3559 6.2014,74.6656 10.748,111.9395 H 4096 Z"
         style="display:inline;opacity:0.05;fill:#ffffff;fill-opacity:1;fill-rule:nonzero;stroke:none;stroke-width:26.38474846;stroke-linecap:butt;stroke-linejoin:round;stroke-miterlimit:4;stroke-dasharray:none;stroke-dashoffset:0;stroke-opacity:1;paint-order:normal;enable-background:new" />
      <path
         transform="matrix(0.26458333,0,0,0.26458333,0,-274.50001)"
         inkscape:connector-curvature="0"
         id="rect1009-3"
         d="m 4062.6191,1015.5117 c -99.5265,-0.085 -196.6509,12.7657 -290.2636,38.3731 -198.726,54.3595 -381.6278,166.2091 -538.1075,333.832 C 3055.83,1578.8404 2912.7906,1843.693 2814.5645,2160 H 4096 V 1016.043 c -11.155,-0.3314 -22.2841,-0.5218 -33.3809,-0.5313 z"
         style="display:inline;opacity:0.05;fill:#ffffff;fill-opacity:1;fill-rule:nonzero;stroke:none;stroke-width:26.38474846;stroke-linecap:butt;stroke-linejoin:round;stroke-miterlimit:4;stroke-dasharray:none;stroke-dashoffset:0;stroke-opacity:1;paint-order:normal;enable-background:new" />
      <path
         transform="matrix(0.26458333,0,0,0.26458333,0,-274.50001)"
         sodipodi:nodetypes="csssccssccccc"
         inkscape:connector-curvature="0"
         id="rect6824"
         d="m 1629.8184,0 c -90.8566,137.17997 -158.1081,289.98136 -196.1153,450.0957 -29.9677,126.24631 -42.5685,257.0985 -86.873,379.05469 -22.1522,60.97809 -52.3846,119.56156 -94.2129,169.1543 -41.8283,49.59271 -95.7277,89.95811 -157.2793,110.46291 -58.3878,19.4507 -121.98209,20.5153 -182.38673,8.7363 C 852.54654,1105.725 795.10069,1081.4887 741.33203,1051.5488 633.79472,991.66914 540.39745,909.26708 435.01953,845.66406 303.28246,766.15145 153.18345,717.73529 0,703.61133 V 2160 h 4096 l -2e-4,-2160 z"
         style="display:inline;opacity:0.05;fill:#ffffff;fill-opacity:1;fill-rule:nonzero;stroke:none;stroke-width:26.38474846;stroke-linecap:butt;stroke-linejoin:round;stroke-miterlimit:4;stroke-dasharray:none;stroke-dashoffset:0;stroke-opacity:1;paint-order:normal;enable-background:new" />
      <path
         transform="matrix(0.26458333,0,0,0.26458333,0,-274.50001)"
         inkscape:connector-curvature="0"
         id="rect6875"
         d="m 2980.1582,94.371094 c -310.3353,-0.787389 -620.7967,81.515716 -892.498,238.085936 -224.6687,129.46711 -424.1877,310.62161 -563.2891,535.62109 -139.1014,224.99948 -215.5942,494.76828 -198.5977,761.90238 11.0104,173.0494 60.2189,344.848 41.6328,517.1914 -0.4617,4.2812 -0.9765,8.5581 -1.5234,12.8281 H 4096 V 495.32227 c -1.1582,-0.93757 -2.3083,-1.88572 -3.4688,-2.82032 -280.792,-226.14051 -625.7729,-364.44268 -979.4941,-392.679684 -44.215,-3.529626 -88.5454,-5.338694 -132.8789,-5.451172 z"
         style="display:inline;opacity:0.05;fill:#ffffff;fill-opacity:1;fill-rule:nonzero;stroke:none;stroke-width:26.38474846;stroke-linecap:butt;stroke-linejoin:round;stroke-miterlimit:4;stroke-dasharray:none;stroke-dashoffset:0;stroke-opacity:1;paint-order:normal;enable-background:new" />
      <path
         transform="matrix(0.26458333,0,0,0.26458333,0,-274.50001)"
         inkscape:connector-curvature="0"
         id="rect6840"
         d="m 3131.8008,1240.3203 c -206.0267,-0.081 -412.0023,32.5252 -607.25,98.4473 C 2106.4691,1479.9258 1739.9267,1776.6323 1524.2246,2160 H 4096 v -660.1211 c -46.9581,-27.6701 -95.1308,-53.2934 -144.3906,-76.7109 -255.0478,-121.2466 -537.4758,-182.7374 -819.8086,-182.8477 z"
         style="display:inline;opacity:0.05;fill:#ffffff;fill-opacity:1;fill-rule:nonzero;stroke:none;stroke-width:26.38474846;stroke-linecap:butt;stroke-linejoin:round;stroke-miterlimit:4;stroke-dasharray:none;stroke-dashoffset:0;stroke-opacity:1;paint-order:normal;enable-background:new" />
      <path
         sodipodi:nodetypes="cccccccsscc"
         inkscape:connector-curvature="0"
         id="rect6831"
         d="m 201.57064,-274.50001 c -59.50544,41.03786 -96.04816,143.75354 -49.31765,204.466707 28.96227,34.740607 124.88358,22.289386 116.56482,81.279915 -5.83416,47.811626 23.42057,110.378938 61.44848,143.126948 72.49429,66.64872 141.31456,64.35723 233.94718,55.68375 106.98566,-10.57677 217.94537,-30.28748 322.72016,4.85305 58.44363,17.39381 113.68707,45.39844 162.38007,82.08962 8.9188,-20.07147 -95.2243,-128.1934 -132.8661,-177.66382 -25.79515,-33.901047 -156.81148,-185.463177 -296.19092,-316.62217 -23.88689,-22.47807 -69.39444,-77.214 -92.86571,-77.214 z"
         style="display:inline;opacity:0.05;fill:#ffffff;fill-opacity:1;fill-rule:nonzero;stroke:none;stroke-width:6.98096466;stroke-linecap:butt;stroke-linejoin:round;stroke-miterlimit:4;stroke-dasharray:none;stroke-dashoffset:0;stroke-opacity:1;paint-order:normal;enable-background:new" />
      <path
         sodipodi:nodetypes="ccccccssc"
         inkscape:connector-curvature="0"
         id="rect6834"
         d="M 0,-257.14758 V 296.99998 H 915.53481 C 929.42435,202.41422 886.96698,93.287011 794.56467,54.980584 692.79396,13.343476 578.64554,57.25018 476.34252,17.279761 421.66235,1.2559597 362.47488,-33.12403 351.30822,-93.878903 c -4.05099,-35.686387 -42.72504,-63.856167 -74.36559,-58.787477 -52.85192,8.46667 -49.22915,48.66914 -141.82849,51.1401 C 69.787089,-99.783066 18.291006,-195.34546 0,-257.14758 Z"
         style="display:inline;opacity:0.05;fill:#ffffff;fill-opacity:1;fill-rule:nonzero;stroke:none;stroke-width:6.98096466;stroke-linecap:butt;stroke-linejoin:round;stroke-miterlimit:4;stroke-dasharray:none;stroke-dashoffset:0;stroke-opacity:1;paint-order:normal;enable-background:new" />
      <path
         sodipodi:nodetypes="cccccsssssc"
         inkscape:connector-curvature="0"
         id="rect6828"
         d="m 88.215286,85.414205 c -2.702105,-0.0026 -5.407353,0.04133 -8.1163,0.13642 C 52.526755,86.518523 25.202344,92.981051 0,104.19703 V 296.915 c 218.55761,0.19124 437.30603,-2e-5 655.86384,-2e-5 2.66756,-10.68399 4.27509,-21.63138 4.73975,-32.63472 1.29953,-30.77316 -6.29613,-61.8709 -21.63641,-88.57959 C 623.62693,148.99199 600.59291,126.76072 573.35724,112.37689 525.27739,86.984746 467.89607,87.009325 413.89567,93.364617 359.89524,99.719909 306.02306,111.80293 251.75931,108.35646 196.75429,104.86291 143.15807,85.468207 88.215286,85.414205 Z"
         style="display:inline;opacity:0.05;fill:#ffffff;fill-opacity:1;fill-rule:nonzero;stroke:none;stroke-width:6.98096466;stroke-linecap:butt;stroke-linejoin:round;stroke-miterlimit:4;stroke-dasharray:none;stroke-dashoffset:0;stroke-opacity:1;paint-order:normal;enable-background:new" />
    </g>
  </g>
  <g
     inkscape:groupmode="layer"
     id="layer3"
     inkscape:label="swirl"
     style="display:inline">
    <g
       style="overflow:visible;fill:#9ab0c9;fill-opacity:1"
       id="g1007"
       transform="matrix(2.4397028,0,0,2.4397028,435.78727,153.45834)"
       inkscape:export-filename="C:\Users\xine\Documents\2018-debian-buster\futurePrototype-source\desktop-wallpaper\png\wallpaper-4096x2160.png"
       inkscape:export-xdpi="96"
       inkscape:export-ydpi="96">
      <g
         ns2:rgbTrio="#4F008000FFFF"
         ns2:dimmedPercent="50"
         ns2:layer="yes"
         id="Layer_1"
         style="fill:#9ab0c9;fill-opacity:1">
        <g
           id="g984"
           style="fill:#9ab0c9;fill-opacity:1">
          <path
             id="path960"
             d="m 51.986,57.297 c -1.797,0.025 0.34,0.926 2.686,1.287 0.648,-0.506 1.236,-1.018 1.76,-1.516 -1.461,0.358 -2.948,0.366 -4.446,0.229"
             ns2:knockout="Off"
             inkscape:connector-curvature="0"
             style="fill:#9ab0c9;fill-opacity:1" />
          <path
             id="path962"
             d="m 61.631,54.893 c 1.07,-1.477 1.85,-3.094 2.125,-4.766 -0.24,1.192 -0.887,2.221 -1.496,3.307 -3.359,2.115 -0.316,-1.256 -0.002,-2.537 -3.612,4.546 -0.496,2.726 -0.627,3.996"
             ns2:knockout="Off"
             inkscape:connector-curvature="0"
             style="fill:#9ab0c9;fill-opacity:1" />
          <path
             id="path964"
             d="m 65.191,45.629 c 0.217,-3.236 -0.637,-2.213 -0.924,-0.978 0.335,0.174 0.6,2.281 0.924,0.978"
             ns2:knockout="Off"
             inkscape:connector-curvature="0"
             style="fill:#9ab0c9;fill-opacity:1" />
          <path
             id="path966"
             d="m 45.172,1.399 c 0.959,0.172 2.072,0.304 1.916,0.533 1.049,-0.23 1.287,-0.442 -1.916,-0.533"
             ns2:knockout="Off"
             inkscape:connector-curvature="0"
             style="fill:#9ab0c9;fill-opacity:1" />
          <path
             id="path968"
             d="M 47.088,1.932 46.41,2.072 47.041,2.016 47.088,1.932"
             ns2:knockout="Off"
             inkscape:connector-curvature="0"
             style="fill:#9ab0c9;fill-opacity:1" />
          <path
             id="path970"
             d="m 76.992,46.856 c 0.107,2.906 -0.85,4.316 -1.713,6.812 l -1.553,0.776 c -1.271,2.468 0.123,1.567 -0.787,3.53 -1.984,1.764 -6.021,5.52 -7.313,5.863 -0.943,-0.021 0.639,-1.113 0.846,-1.541 -2.656,1.824 -2.131,2.738 -6.193,3.846 L 60.16,65.878 C 50.142,70.591 36.226,61.251 36.409,48.507 c -0.107,0.809 -0.304,0.607 -0.526,0.934 -0.517,-6.557 3.028,-13.143 9.007,-15.832 5.848,-2.895 12.704,-1.707 16.893,2.197 -2.301,-3.014 -6.881,-6.209 -12.309,-5.91 -5.317,0.084 -10.291,3.463 -11.951,7.131 -2.724,1.715 -3.04,6.611 -4.227,7.507 -1.597,11.737 3.004,16.808 10.787,22.773 1.225,0.826 0.345,0.951 0.511,1.58 -2.586,-1.211 -4.954,-3.039 -6.901,-5.277 1.033,1.512 2.148,2.982 3.589,4.137 -2.438,-0.826 -5.695,-5.908 -6.646,-6.115 4.203,7.525 17.052,13.197 23.78,10.383 -3.113,0.115 -7.068,0.064 -10.566,-1.229 -1.469,-0.756 -3.467,-2.322 -3.11,-2.615 9.182,3.43 18.667,2.598 26.612,-3.771 2.021,-1.574 4.229,-4.252 4.867,-4.289 -0.961,1.445 0.164,0.695 -0.574,1.971 2.014,-3.248 -0.875,-1.322 2.082,-5.609 l 1.092,1.504 c -0.406,-2.696 3.348,-5.97 2.967,-10.234 0.861,-1.304 0.961,1.403 0.047,4.403 1.268,-3.328 0.334,-3.863 0.66,-6.609 0.352,0.923 0.814,1.904 1.051,2.878 -0.826,-3.216 0.848,-5.416 1.262,-7.285 -0.408,-0.181 -1.275,1.422 -1.473,-2.377 0.029,-1.65 0.459,-0.865 0.625,-1.271 -0.324,-0.186 -1.174,-1.451 -1.691,-3.877 0.375,-0.57 1.002,1.478 1.512,1.562 -0.328,-1.929 -0.893,-3.4 -0.916,-4.88 -1.49,-3.114 -0.527,0.415 -1.736,-1.337 -1.586,-4.947 1.316,-1.148 1.512,-3.396 2.404,3.483 3.775,8.881 4.404,11.117 -0.48,-2.726 -1.256,-5.367 -2.203,-7.922 0.73,0.307 -1.176,-5.609 0.949,-1.691 C 83.519,18.706 76.074,10.902 69.225,7.24 70.063,8.007 71.121,8.97 70.741,9.121 67.335,7.093 67.934,6.935 67.446,6.078 64.671,4.949 64.489,6.169 62.651,6.08 57.421,3.306 56.413,3.601 51.6,1.863 l 0.219,1.023 c -3.465,-1.154 -4.037,0.438 -7.782,0.004 -0.228,-0.178 1.2,-0.644 2.375,-0.815 -3.35,0.442 -3.193,-0.66 -6.471,0.122 0.808,-0.567 1.662,-0.942 2.524,-1.424 -2.732,0.166 -6.522,1.59 -5.352,0.295 -4.456,1.988 -12.37,4.779 -16.811,8.943 l -0.14,-0.933 c -2.035,2.443 -8.874,7.296 -9.419,10.46 l -0.544,0.127 c -1.059,1.793 -1.744,3.825 -2.584,5.67 -1.385,2.36 -2.03,0.908 -1.833,1.278 -2.724,5.523 -4.077,10.164 -5.246,13.97 0.833,1.245 0.02,7.495 0.335,12.497 -1.368,24.704 17.338,48.69 37.785,54.228 2.997,1.072 7.454,1.031 11.245,1.141 -4.473,-1.279 -5.051,-0.678 -9.408,-2.197 -3.143,-1.48 -3.832,-3.17 -6.058,-5.102 l 0.881,1.557 c -4.366,-1.545 -2.539,-1.912 -6.091,-3.037 l 0.941,-1.229 C 28.751,98.334 26.418,96.056 25.78,94.795 l -1.548,0.061 c -1.86,-2.295 -2.851,-3.949 -2.779,-5.23 l -0.5,0.891 c -0.567,-0.973 -6.843,-8.607 -3.587,-6.83 -0.605,-0.553 -1.409,-0.9 -2.281,-2.484 l 0.663,-0.758 c -1.567,-2.016 -2.884,-4.6 -2.784,-5.461 0.836,1.129 1.416,1.34 1.99,1.533 -3.957,-9.818 -4.179,-0.541 -7.176,-9.994 L 8.412,66.472 C 7.926,65.74 7.631,64.945 7.24,64.165 l 0.276,-2.75 C 4.667,58.121 6.719,47.409 7.13,41.534 7.415,39.145 9.508,36.602 11.1,32.614 l -0.97,-0.167 c 1.854,-3.234 10.586,-12.988 14.63,-12.486 1.959,-2.461 -0.389,-0.009 -0.772,-0.629 4.303,-4.453 5.656,-3.146 8.56,-3.947 3.132,-1.859 -2.688,0.725 -1.203,-0.709 5.414,-1.383 3.837,-3.144 10.9,-3.846 0.745,0.424 -1.729,0.655 -2.35,1.205 4.511,-2.207 14.275,-1.705 20.617,1.225 7.359,3.439 15.627,13.605 15.953,23.17 l 0.371,0.1 c -0.188,3.802 0.582,8.199 -0.752,12.238 l 0.908,-1.912"
             ns2:knockout="Off"
             inkscape:connector-curvature="0"
             style="fill:#9ab0c9;fill-opacity:1" />
          <path
             id="path972"
             d="m 32.372,59.764 -0.252,1.26 c 1.181,1.604 2.118,3.342 3.626,4.596 -1.085,-2.118 -1.891,-2.993 -3.374,-5.856"
             ns2:knockout="Off"
             inkscape:connector-curvature="0"
             style="fill:#9ab0c9;fill-opacity:1" />
          <path
             id="path974"
             d="m 35.164,59.654 c -0.625,-0.691 -0.995,-1.523 -1.409,-2.352 0.396,1.457 1.207,2.709 1.962,3.982 l -0.553,-1.63"
             ns2:knockout="Off"
             inkscape:connector-curvature="0"
             style="fill:#9ab0c9;fill-opacity:1" />
          <path
             id="path976"
             d="m 84.568,48.916 -0.264,0.662 c -0.484,3.438 -1.529,6.84 -3.131,9.994 1.77,-3.328 2.915,-6.968 3.395,-10.656"
             ns2:knockout="Off"
             inkscape:connector-curvature="0"
             style="fill:#9ab0c9;fill-opacity:1" />
          <path
             id="path978"
             d="M 45.527,0.537 C 46.742,0.092 48.514,0.293 49.803,0 48.123,0.141 46.451,0.225 44.8,0.438 l 0.727,0.099"
             ns2:knockout="Off"
             inkscape:connector-curvature="0"
             style="fill:#9ab0c9;fill-opacity:1" />
          <path
             id="path980"
             d="m 2.872,23.219 c 0.28,2.592 -1.95,3.598 0.494,1.889 1.31,-2.951 -0.512,-0.815 -0.494,-1.889"
             ns2:knockout="Off"
             inkscape:connector-curvature="0"
             style="fill:#9ab0c9;fill-opacity:1" />
          <path
             id="path982"
             d="M 0,35.215 C 0.563,33.487 0.665,32.449 0.88,31.449 -0.676,33.438 0.164,33.862 0,35.215"
             ns2:knockout="Off"
             inkscape:connector-curvature="0"
             style="fill:#9ab0c9;fill-opacity:1" />
        </g>
      </g>
    </g>
  </g>
</svg>
