<svg id="visual" viewBox="0 0 1920 1080" width="1920" height="1080" xmlns="http://www.w3.org/2000/svg" xmlns:xlink="http://www.w3.org/1999/xlink" version="1.1"><rect x="0" y="0" width="1920" height="1080" fill="#241f31"></rect><defs><linearGradient id="grad1_0" x1="43.8%" y1="0%" x2="100%" y2="100%"><stop offset="14.444444444444446%" stop-color="#c64600" stop-opacity="1"></stop><stop offset="85.55555555555554%" stop-color="#c64600" stop-opacity="1"></stop></linearGradient></defs><defs><linearGradient id="grad1_1" x1="43.8%" y1="0%" x2="100%" y2="100%"><stop offset="14.444444444444446%" stop-color="#c64600" stop-opacity="1"></stop><stop offset="85.55555555555554%" stop-color="#b92c2c" stop-opacity="1"></stop></linearGradient></defs><defs><linearGradient id="grad1_2" x1="43.8%" y1="0%" x2="100%" y2="100%"><stop offset="14.444444444444446%" stop-color="#a12042" stop-opacity="1"></stop><stop offset="85.55555555555554%" stop-color="#b92c2c" stop-opacity="1"></stop></linearGradient></defs><defs><linearGradient id="grad1_3" x1="43.8%" y1="0%" x2="100%" y2="100%"><stop offset="14.444444444444446%" stop-color="#a12042" stop-opacity="1"></stop><stop offset="85.55555555555554%" stop-color="#82214d" stop-opacity="1"></stop></linearGradient></defs><defs><linearGradient id="grad1_4" x1="43.8%" y1="0%" x2="100%" y2="100%"><stop offset="14.444444444444446%" stop-color="#5f254d" stop-opacity="1"></stop><stop offset="85.55555555555554%" stop-color="#82214d" stop-opacity="1"></stop></linearGradient></defs><defs><linearGradient id="grad1_5" x1="43.8%" y1="0%" x2="100%" y2="100%"><stop offset="14.444444444444446%" stop-color="#5f254d" stop-opacity="1"></stop><stop offset="85.55555555555554%" stop-color="#3e2444" stop-opacity="1"></stop></linearGradient></defs><defs><linearGradient id="grad1_6" x1="43.8%" y1="0%" x2="100%" y2="100%"><stop offset="14.444444444444446%" stop-color="#241f31" stop-opacity="1"></stop><stop offset="85.55555555555554%" stop-color="#3e2444" stop-opacity="1"></stop></linearGradient></defs><defs><linearGradient id="grad2_0" x1="0%" y1="0%" x2="56.3%" y2="100%"><stop offset="14.444444444444446%" stop-color="#c64600" stop-opacity="1"></stop><stop offset="85.55555555555554%" stop-color="#c64600" stop-opacity="1"></stop></linearGradient></defs><defs><linearGradient id="grad2_1" x1="0%" y1="0%" x2="56.3%" y2="100%"><stop offset="14.444444444444446%" stop-color="#b92c2c" stop-opacity="1"></stop><stop offset="85.55555555555554%" stop-color="#c64600" stop-opacity="1"></stop></linearGradient></defs><defs><linearGradient id="grad2_2" x1="0%" y1="0%" x2="56.3%" y2="100%"><stop offset="14.444444444444446%" stop-color="#b92c2c" stop-opacity="1"></stop><stop offset="85.55555555555554%" stop-color="#a12042" stop-opacity="1"></stop></linearGradient></defs><defs><linearGradient id="grad2_3" x1="0%" y1="0%" x2="56.3%" y2="100%"><stop offset="14.444444444444446%" stop-color="#82214d" stop-opacity="1"></stop><stop offset="85.55555555555554%" stop-color="#a12042" stop-opacity="1"></stop></linearGradient></defs><defs><linearGradient id="grad2_4" x1="0%" y1="0%" x2="56.3%" y2="100%"><stop offset="14.444444444444446%" stop-color="#82214d" stop-opacity="1"></stop><stop offset="85.55555555555554%" stop-color="#5f254d" stop-opacity="1"></stop></linearGradient></defs><defs><linearGradient id="grad2_5" x1="0%" y1="0%" x2="56.3%" y2="100%"><stop offset="14.444444444444446%" stop-color="#3e2444" stop-opacity="1"></stop><stop offset="85.55555555555554%" stop-color="#5f254d" stop-opacity="1"></stop></linearGradient></defs><defs><linearGradient id="grad2_6" x1="0%" y1="0%" x2="56.3%" y2="100%"><stop offset="14.444444444444446%" stop-color="#3e2444" stop-opacity="1"></stop><stop offset="85.55555555555554%" stop-color="#241f31" stop-opacity="1"></stop></linearGradient></defs><g transform="translate(1920, 0)"><path d="M0 1080C-68.6 1061 -137.3 1042 -203.3 1022C-269.3 1002 -332.6 981 -394.9 953.4C-457.3 925.9 -518.6 891.6 -565.6 846.4C-612.6 801.2 -645.2 745 -707.1 707.1C-769 669.2 -860 649.6 -886.3 592.2C-912.7 534.9 -874.3 439.8 -900.8 373.1C-927.3 306.4 -1018.6 268.1 -1059.2 210.7C-1099.9 153.2 -1090 76.6 -1080 0L0 0Z" fill="#30223b"></path><path d="M0 925.7C-58.8 909.4 -117.7 893.1 -174.2 876C-230.8 858.8 -285.1 840.9 -338.5 817.2C-391.9 793.6 -444.5 764.3 -484.8 725.5C-525.1 686.8 -553.1 638.6 -606.1 606.1C-659.1 573.6 -737.2 556.8 -759.7 507.6C-782.3 458.5 -749.4 377 -772.1 319.8C-794.8 262.7 -873.1 229.8 -907.9 180.6C-942.8 131.4 -934.3 65.7 -925.7 0L0 0Z" fill="#4e254a"></path><path d="M0 771.4C-49 757.8 -98.1 744.3 -145.2 730C-192.3 715.7 -237.6 700.7 -282.1 681C-326.6 661.3 -370.4 636.9 -404 604.6C-437.5 572.3 -460.9 532.2 -505.1 505.1C-549.3 478 -614.3 464 -633.1 423C-651.9 382.1 -624.5 314.1 -643.4 266.5C-662.3 218.9 -727.6 191.5 -756.6 150.5C-785.7 109.5 -778.5 54.7 -771.4 0L0 0Z" fill="#70234e"></path><path d="M0 617.1C-39.2 606.3 -78.5 595.4 -116.2 584C-153.9 572.6 -190.1 560.6 -225.7 544.8C-261.3 529.1 -296.3 509.5 -323.2 483.7C-350 457.8 -368.7 425.7 -404.1 404.1C-439.4 382.4 -491.4 371.2 -506.5 338.4C-521.5 305.7 -499.6 251.3 -514.7 213.2C-529.9 175.1 -582 153.2 -605.3 120.4C-628.5 87.6 -622.8 43.8 -617.1 0L0 0Z" fill="#921f48"></path><path d="M0 462.9C-29.4 454.7 -58.8 446.6 -87.1 438C-115.4 429.4 -142.5 420.4 -169.3 408.6C-196 396.8 -222.2 382.1 -242.4 362.8C-262.5 343.4 -276.5 319.3 -303 303C-329.6 286.8 -368.6 278.4 -379.9 253.8C-391.1 229.2 -374.7 188.5 -386 159.9C-397.4 131.3 -436.5 114.9 -454 90.3C-471.4 65.7 -467.1 32.8 -462.9 0L0 0Z" fill="#af2438"></path><path d="M0 308.6C-19.6 303.1 -39.2 297.7 -58.1 292C-76.9 286.3 -95 280.3 -112.8 272.4C-130.6 264.5 -148.2 254.8 -161.6 241.8C-175 228.9 -184.4 212.9 -202 202C-219.7 191.2 -245.7 185.6 -253.2 169.2C-260.8 152.8 -249.8 125.7 -257.4 106.6C-264.9 87.6 -291 76.6 -302.6 60.2C-314.3 43.8 -311.4 21.9 -308.6 0L0 0Z" fill="#c1381d"></path><path d="M0 154.3C-9.8 151.6 -19.6 148.9 -29 146C-38.5 143.1 -47.5 140.1 -56.4 136.2C-65.3 132.3 -74.1 127.4 -80.8 120.9C-87.5 114.5 -92.2 106.4 -101 101C-109.9 95.6 -122.9 92.8 -126.6 84.6C-130.4 76.4 -124.9 62.8 -128.7 53.3C-132.5 43.8 -145.5 38.3 -151.3 30.1C-157.1 21.9 -155.7 10.9 -154.3 0L0 0Z" fill="#c64600"></path></g><g transform="translate(0, 1080)"><path d="M0 -1080C75.2 -1082.3 150.5 -1084.5 207.8 -1044.5C265.1 -1004.6 304.4 -922.4 373.9 -902.6C443.4 -882.9 543.1 -925.6 600 -898C656.9 -870.4 670.9 -772.6 707.8 -707.8C744.7 -643 804.4 -611.4 839.8 -561.1C875.2 -510.9 886.3 -442.1 923 -382.3C959.6 -322.5 1021.9 -271.6 1052.4 -209.3C1082.8 -147.1 1081.4 -73.6 1080 0L0 0Z" fill="#30223b"></path><path d="M0 -925.7C64.5 -927.6 129 -929.6 178.1 -895.3C227.2 -861.1 260.9 -790.6 320.5 -773.7C380.1 -756.8 465.5 -793.3 514.3 -769.7C563.1 -746.1 575.1 -662.2 606.7 -606.7C638.3 -551.2 689.5 -524 719.8 -481C750.2 -437.9 759.7 -379 791.1 -327.7C822.6 -276.4 875.9 -232.8 902 -179.4C928.1 -126.1 926.9 -63 925.7 0L0 0Z" fill="#4e254a"></path><path d="M0 -771.4C53.7 -773 107.5 -774.6 148.4 -746.1C189.3 -717.5 217.4 -658.8 267.1 -644.7C316.7 -630.6 388 -661.1 428.6 -641.4C469.2 -621.7 479.2 -551.8 505.6 -505.6C531.9 -459.3 574.6 -436.7 599.8 -400.8C625.1 -364.9 633 -315.8 659.3 -273.1C685.5 -230.3 730 -194 751.7 -149.5C773.4 -105.1 772.4 -52.5 771.4 0L0 0Z" fill="#70234e"></path><path d="M0 -617.1C43 -618.4 86 -619.7 118.7 -596.9C151.5 -574 173.9 -527.1 213.6 -515.8C253.4 -504.5 310.4 -528.9 342.9 -513.1C375.4 -497.4 383.4 -441.5 404.5 -404.5C425.5 -367.5 459.7 -349.3 479.9 -320.6C500.1 -291.9 506.4 -252.6 527.4 -218.5C548.4 -184.3 584 -155.2 601.4 -119.6C618.8 -84.1 617.9 -42 617.1 0L0 0Z" fill="#921f48"></path><path d="M0 -462.9C32.2 -463.8 64.5 -464.8 89 -447.7C113.6 -430.5 130.4 -395.3 160.2 -386.8C190 -378.4 232.8 -396.7 257.1 -384.9C281.5 -373 287.5 -331.1 303.3 -303.3C319.2 -275.6 344.7 -262 359.9 -240.5C375.1 -219 379.8 -189.5 395.6 -163.8C411.3 -138.2 438 -116.4 451 -89.7C464.1 -63 463.5 -31.5 462.9 0L0 0Z" fill="#af2438"></path><path d="M0 -308.6C21.5 -309.2 43 -309.9 59.4 -298.4C75.7 -287 87 -263.5 106.8 -257.9C126.7 -252.3 155.2 -264.4 171.4 -256.6C187.7 -248.7 191.7 -220.7 202.2 -202.2C212.8 -183.7 229.8 -174.7 239.9 -160.3C250.1 -146 253.2 -126.3 263.7 -109.2C274.2 -92.1 292 -77.6 300.7 -59.8C309.4 -42 309 -21 308.6 0L0 0Z" fill="#c1381d"></path><path d="M0 -154.3C10.7 -154.6 21.5 -154.9 29.7 -149.2C37.9 -143.5 43.5 -131.8 53.4 -128.9C63.3 -126.1 77.6 -132.2 85.7 -128.3C93.8 -124.3 95.8 -110.4 101.1 -101.1C106.4 -91.9 114.9 -87.3 120 -80.2C125 -73 126.6 -63.2 131.9 -54.6C137.1 -46.1 146 -38.8 150.3 -29.9C154.7 -21 154.5 -10.5 154.3 0L0 0Z" fill="#c64600"></path></g></svg>