<?xml version="1.0" encoding="UTF-8" standalone="no"?>
<svg
   xmlns:dc="http://purl.org/dc/elements/1.1/"
   xmlns:cc="http://creativecommons.org/ns#"
   xmlns:rdf="http://www.w3.org/1999/02/22-rdf-syntax-ns#"
   xmlns:svg="http://www.w3.org/2000/svg"
   xmlns="http://www.w3.org/2000/svg"
   xmlns:sodipodi="http://sodipodi.sourceforge.net/DTD/sodipodi-0.dtd"
   xmlns:inkscape="http://www.inkscape.org/namespaces/inkscape"
   version="1.1"
   id="Layer_1"
   x="0px"
   y="0px"
   width="3840"
   height="2160"
   viewBox="0 0 3840 2160"
   enable-background="new 0 60 1920 1080"
   xml:space="preserve"
   sodipodi:docname="3840x2160.svg"
   inkscape:version="0.92.0 r15299"><metadata
     id="metadata5972"><rdf:RDF><cc:Work
         rdf:about=""><dc:format>image/svg+xml</dc:format><dc:type
           rdf:resource="http://purl.org/dc/dcmitype/StillImage" /><dc:title></dc:title></cc:Work></rdf:RDF></metadata><defs
     id="defs5970" /><sodipodi:namedview
     pagecolor="#ffffff"
     bordercolor="#666666"
     borderopacity="1"
     objecttolerance="10"
     gridtolerance="10"
     guidetolerance="10"
     inkscape:pageopacity="0"
     inkscape:pageshadow="2"
     inkscape:window-width="1920"
     inkscape:window-height="1013"
     id="namedview5968"
     showgrid="false"
     fit-margin-top="0"
     fit-margin-left="0"
     fit-margin-right="0"
     fit-margin-bottom="0"
     inkscape:zoom="0.22704757"
     inkscape:cx="2090.4717"
     inkscape:cy="870.181"
     inkscape:window-x="0"
     inkscape:window-y="34"
     inkscape:window-maximized="1"
     inkscape:current-layer="Layer_1" /><g
     id="lines"
     display="none"
     style="display:none"
     transform="translate(1085.7325,453.61151)"><g
       id="guides"
       display="inline"
       style="display:inline"><line
         stroke-miterlimit="10"
         x1="960"
         y1="-27"
         x2="960"
         y2="1219"
         id="line5961"
         style="fill:none;stroke:#000000;stroke-miterlimit:10" /><line
         stroke-miterlimit="10"
         x1="0"
         y1="540"
         x2="1920"
         y2="540"
         id="line5963"
         style="fill:none;stroke:#000000;stroke-miterlimit:10" /></g></g><g
     id="gradient"
     transform="matrix(2,0,0,2,2.0000439,-1.9999988)"><radialGradient
       id="SVGID_1_"
       cx="2505.6074"
       cy="-480.42068"
       r="2425.5129"
       fx="2252.7292"
       fy="-466.74481"
       gradientTransform="matrix(1.1643,0,0,1.1024,-741.5841,402.0192)"
       gradientUnits="userSpaceOnUse"><stop
         offset="0"
         style="stop-color:#073246"
         id="stop5807" /><stop
         offset="0.4409"
         style="stop-color:#489291"
         id="stop5809" /><stop
         offset="0.9891"
         style="stop-color:#063246"
         id="stop5811" /></radialGradient><rect
       x="-282"
       y="-292.776"
       width="2731.4651"
       height="1496.775"
       id="rect5814"
       style="fill:url(#SVGID_1_)" /></g><g
     id="logo"
     transform="matrix(2,0,0,2,2.0000439,-1.9999988)"><g
       id="g5901"><radialGradient
         id="SVGID_2_"
         cx="1364.4707"
         cy="11.738"
         r="2.9186001"
         gradientTransform="matrix(1.0725,0,0,0.9931,-411.9814,488.2964)"
         gradientUnits="userSpaceOnUse"><stop
           offset="0"
           style="stop-color:#FFF1E9"
           id="stop5817" /><stop
           offset="1"
           style="stop-color:#FFFFFF;stop-opacity:0.2"
           id="stop5819" /></radialGradient><path
         d="m 1048.302,499.081 c -2.963,0.042 0.563,1.523 4.428,2.12 1.069,-0.834 2.041,-1.676 2.901,-2.496 -2.408,0.59 -4.859,0.601 -7.329,0.376"
         id="path5822"
         inkscape:connector-curvature="0"
         style="fill:url(#SVGID_2_)" /><radialGradient
         id="SVGID_3_"
         cx="1377.168"
         cy="2.9260001"
         r="3.3039"
         gradientTransform="matrix(1.0725,0,0,0.9931,-411.9814,488.2964)"
         gradientUnits="userSpaceOnUse"><stop
           offset="0"
           style="stop-color:#FFF1E9"
           id="stop5824" /><stop
           offset="1"
           style="stop-color:#FFFFFF;stop-opacity:0.2"
           id="stop5826" /></radialGradient><path
         d="m 1064.207,495.124 c 1.764,-2.43 3.051,-5.092 3.503,-7.844 -0.396,1.96 -1.462,3.655 -2.465,5.441 -5.539,3.48 -0.523,-2.066 0,-4.177 -5.955,7.485 -0.82,4.489 -1.034,6.58"
         id="path5829"
         inkscape:connector-curvature="0"
         style="fill:url(#SVGID_3_)" /><radialGradient
         id="SVGID_4_"
         cx="1381.1895"
         cy="-9.9240999"
         r="1.6042"
         gradientTransform="matrix(1.0725,0,0,0.9931,-411.9814,488.2964)"
         gradientUnits="userSpaceOnUse"><stop
           offset="0"
           style="stop-color:#FFF1E9"
           id="stop5831" /><stop
           offset="1"
           style="stop-color:#FFFFFF;stop-opacity:0.2"
           id="stop5833" /></radialGradient><path
         d="m 1070.079,479.875 c 0.354,-5.326 -1.052,-3.644 -1.526,-1.607 0.551,0.284 0.992,3.751 1.526,1.607"
         id="path5836"
         inkscape:connector-curvature="0"
         style="fill:url(#SVGID_4_)" /><radialGradient
         id="SVGID_5_"
         cx="1353.1025"
         cy="-81.3489"
         r="1.457"
         gradientTransform="matrix(1.0725,0,0,0.9931,-411.9814,488.2964)"
         gradientUnits="userSpaceOnUse"><stop
           offset="0"
           style="stop-color:#FFF1E9"
           id="stop5838" /><stop
           offset="1"
           style="stop-color:#FFFFFF;stop-opacity:0.2"
           id="stop5840" /></radialGradient><path
         d="m 1037.063,407.068 c 1.582,0.284 3.418,0.501 3.157,0.879 1.734,-0.38 2.126,-0.727 -3.157,-0.879"
         id="path5843"
         inkscape:connector-curvature="0"
         style="fill:url(#SVGID_5_)" /><radialGradient
         id="SVGID_6_"
         cx="1353.5176"
         cy="-80.792198"
         r="0.37630001"
         gradientTransform="matrix(1.0725,0,0,0.9931,-411.9814,488.2964)"
         gradientUnits="userSpaceOnUse"><stop
           offset="0"
           style="stop-color:#FFF1E9"
           id="stop5845" /><stop
           offset="1"
           style="stop-color:#FFFFFF;stop-opacity:0.2"
           id="stop5847" /></radialGradient><path
         d="m 1040.223,407.947 -1.113,0.229 1.036,-0.093 0.077,-0.136"
         id="path5850"
         inkscape:connector-curvature="0"
         style="fill:url(#SVGID_6_)" /><radialGradient
         id="SVGID_7_"
         cx="1348.9648"
         cy="6.4040999"
         r="78.696503"
         gradientTransform="matrix(1.0725,0,0,0.9931,-411.9814,488.2964)"
         gradientUnits="userSpaceOnUse"><stop
           offset="0"
           style="stop-color:#FFF1E9"
           id="stop5852" /><stop
           offset="1"
           style="stop-color:#FFFFFF;stop-opacity:0.2"
           id="stop5854" /></radialGradient><path
         d="m 1089.538,481.894 c 0.176,4.784 -1.401,7.105 -2.824,11.214 l -2.563,1.276 c -2.097,4.063 0.203,2.58 -1.297,5.809 -3.271,2.907 -9.931,9.09 -12.062,9.652 -1.555,-0.032 1.055,-1.832 1.396,-2.537 -4.379,3.004 -3.513,4.509 -10.212,6.333 l -0.194,-0.436 c -16.522,7.759 -39.472,-7.615 -39.168,-28.596 -0.181,1.333 -0.5,1 -0.868,1.539 -0.854,-10.793 4.995,-21.634 14.853,-26.06 9.646,-4.769 20.951,-2.812 27.86,3.615 -3.795,-4.962 -11.347,-10.22 -20.3,-9.729 -8.771,0.139 -16.971,5.699 -19.707,11.737 -4.494,2.824 -5.016,10.883 -6.974,12.356 -2.634,19.321 4.952,27.667 17.786,37.485 2.021,1.359 0.573,1.563 0.846,2.6 -4.266,-1.991 -8.168,-5.002 -11.379,-8.684 1.703,2.486 3.541,4.907 5.918,6.81 -4.021,-1.357 -9.394,-9.728 -10.962,-10.066 6.933,12.388 28.119,21.726 39.216,17.091 -5.133,0.191 -11.655,0.104 -17.426,-2.021 -2.421,-1.244 -5.717,-3.821 -5.125,-4.306 15.143,5.646 30.782,4.276 43.885,-6.206 3.332,-2.592 6.976,-6.999 8.024,-7.06 -1.583,2.376 0.271,1.141 -0.944,3.242 3.321,-5.346 -1.443,-2.176 3.432,-9.231 l 1.803,2.475 c -0.67,-4.436 5.521,-9.827 4.896,-16.846 1.42,-2.147 1.584,2.31 0.075,7.247 2.093,-5.478 0.554,-6.356 1.089,-10.875 0.582,1.516 1.344,3.131 1.732,4.732 -1.362,-5.291 1.398,-8.913 2.081,-11.989 -0.671,-0.297 -2.103,2.34 -2.43,-3.913 0.05,-2.716 0.758,-1.423 1.031,-2.092 -0.533,-0.309 -1.937,-2.389 -2.789,-6.382 0.618,-0.938 1.649,2.432 2.494,2.569 -0.541,-3.175 -1.475,-5.595 -1.512,-8.03 -2.457,-5.128 -0.867,0.682 -2.864,-2.202 -2.612,-8.146 2.173,-1.893 2.495,-5.591 3.966,5.734 6.227,14.619 7.262,18.298 -0.791,-4.485 -2.069,-8.832 -3.635,-13.041 1.205,0.507 -1.938,-9.229 1.565,-2.782 -3.742,-13.748 -16.019,-26.593 -27.315,-32.619 1.385,1.259 3.127,6.139 2.502,6.387 -5.618,-3.338 -4.631,-6.891 -5.434,-8.301 -4.579,-1.855 -4.877,0.149 -7.907,0.005 -8.626,-4.566 -10.288,-4.082 -18.226,-6.943 l 0.362,1.686 c -5.718,-1.9 -6.658,0.721 -12.834,0.006 -0.377,-0.293 1.979,-1.059 3.916,-1.342 -5.521,0.729 -5.268,-1.086 -10.671,0.2 1.332,-0.936 2.738,-1.551 4.162,-2.344 -4.507,0.271 -10.757,2.617 -8.825,0.486 -7.352,3.271 -20.4,7.867 -27.726,14.722 l -0.229,-1.535 c -3.356,4.021 -14.636,12.009 -15.532,17.217 l -0.897,0.208 c -1.745,2.952 -2.878,6.298 -4.262,9.332 -2.284,3.886 -3.349,1.497 -3.022,2.104 -4.488,9.093 -6.724,16.731 -8.649,22.994 1.373,2.051 0.033,12.339 0.551,20.573 -2.256,40.665 28.594,80.146 62.314,89.264 4.938,1.766 12.29,1.698 18.541,1.877 -7.375,-2.104 -8.331,-1.114 -15.516,-3.617 -5.184,-2.433 -6.318,-5.217 -9.989,-8.396 l 1.454,2.563 c -7.201,-2.545 -4.188,-3.147 -10.047,-5 l 1.553,-2.021 c -2.333,-0.177 -6.183,-3.926 -7.231,-6.001 l -2.552,0.103 c -3.071,-3.779 -4.703,-6.501 -4.585,-8.608 l -0.823,1.465 c -0.935,-1.602 -11.288,-14.17 -5.917,-11.243 -0.996,-0.912 -2.324,-1.48 -3.761,-4.091 l 1.094,-1.246 c -2.584,-3.319 -4.757,-7.572 -4.592,-8.989 1.377,1.857 2.335,2.204 3.282,2.524 -6.526,-16.163 -6.893,-0.891 -11.837,-16.452 l 1.049,-0.083 c -0.805,-1.204 -1.29,-2.513 -1.934,-3.799 l 0.452,-4.527 c -4.696,-5.419 -1.313,-23.056 -0.636,-32.724 0.469,-3.934 3.921,-8.117 6.547,-14.686 l -1.6,-0.272 c 3.059,-5.323 17.457,-21.378 24.126,-20.551 3.229,-4.054 -0.643,-0.02 -1.271,-1.035 7.097,-7.331 9.327,-5.183 14.115,-6.499 5.164,-3.062 -4.435,1.192 -1.981,-1.167 8.929,-2.278 6.326,-5.176 17.972,-6.331 1.229,0.698 -2.85,1.077 -3.873,1.981 7.438,-3.631 23.538,-2.805 33.998,2.019 12.138,5.662 25.771,22.396 26.311,38.14 l 0.612,0.164 c -0.313,6.258 0.957,13.496 -1.239,20.146 l 1.496,-3.149"
         id="path5857"
         inkscape:connector-curvature="0"
         style="fill:url(#SVGID_7_)" /><radialGradient
         id="SVGID_8_"
         cx="1333.8086"
         cy="19.8015"
         r="3.9563999"
         gradientTransform="matrix(1.0725,0,0,0.9931,-411.9814,488.2964)"
         gradientUnits="userSpaceOnUse"><stop
           offset="0"
           style="stop-color:#FFF1E9"
           id="stop5859" /><stop
           offset="1"
           style="stop-color:#FFFFFF;stop-opacity:0.2"
           id="stop5861" /></radialGradient><path
         d="m 1015.956,503.142 -0.416,2.073 c 1.947,2.64 3.493,5.501 5.979,7.563 -1.79,-3.481 -3.117,-4.924 -5.563,-9.636"
         id="path5864"
         inkscape:connector-curvature="0"
         style="fill:url(#SVGID_8_)" /><radialGradient
         id="SVGID_9_"
         cx="1335.0459"
         cy="14.1677"
         r="2.566"
         gradientTransform="matrix(1.0725,0,0,0.9931,-411.9814,488.2964)"
         gradientUnits="userSpaceOnUse"><stop
           offset="0"
           style="stop-color:#FFF1E9"
           id="stop5866" /><stop
           offset="1"
           style="stop-color:#FFFFFF;stop-opacity:0.2"
           id="stop5868" /></radialGradient><path
         d="m 1020.56,502.964 c -1.026,-1.14 -1.641,-2.51 -2.32,-3.875 0.649,2.396 1.988,4.459 3.233,6.556 l -0.913,-2.681"
         id="path5871"
         inkscape:connector-curvature="0"
         style="fill:url(#SVGID_9_)" /><radialGradient
         id="SVGID_10_"
         cx="1409.0547"
         cy="5.8004999"
         r="6.5116"
         gradientTransform="matrix(1.0725,0,0,0.9931,-411.9814,488.2964)"
         gradientUnits="userSpaceOnUse"><stop
           offset="0"
           style="stop-color:#FFF1E9"
           id="stop5873" /><stop
           offset="1"
           style="stop-color:#FFFFFF;stop-opacity:0.2"
           id="stop5875" /></radialGradient><path
         d="m 1102.03,485.286 -0.438,1.092 c -0.796,5.657 -2.52,11.259 -5.162,16.449 2.921,-5.479 4.809,-11.473 5.6,-17.541"
         id="path5878"
         inkscape:connector-curvature="0"
         style="fill:url(#SVGID_10_)" /><radialGradient
         id="SVGID_11_"
         cx="1354.3652"
         cy="-83.664299"
         r="2.7374001"
         gradientTransform="matrix(1.0725,0,0,0.9931,-411.9814,488.2964)"
         gradientUnits="userSpaceOnUse"><stop
           offset="0"
           style="stop-color:#FFF1E9"
           id="stop5880" /><stop
           offset="1"
           style="stop-color:#FFFFFF;stop-opacity:0.2"
           id="stop5882" /></radialGradient><path
         d="m 1037.651,405.65 c 2.001,-0.73 4.924,-0.402 7.049,-0.884 -2.771,0.229 -5.526,0.37 -8.25,0.721 l 1.201,0.163"
         id="path5885"
         inkscape:connector-curvature="0"
         style="fill:url(#SVGID_11_)" /><radialGradient
         id="SVGID_12_"
         cx="1286.2842"
         cy="-43.3577"
         r="1.8316"
         gradientTransform="matrix(1.0725,0,0,0.9931,-411.9814,488.2964)"
         gradientUnits="userSpaceOnUse"><stop
           offset="0"
           style="stop-color:#FFF1E9"
           id="stop5887" /><stop
           offset="1"
           style="stop-color:#FFFFFF;stop-opacity:0.2"
           id="stop5889" /></radialGradient><path
         d="m 967.308,442.987 c 0.462,4.268 -3.216,5.922 0.815,3.108 2.158,-4.858 -0.846,-1.339 -0.815,-3.108"
         id="path5892"
         inkscape:connector-curvature="0"
         style="fill:url(#SVGID_12_)" /><radialGradient
         id="SVGID_13_"
         cx="1282.2461"
         cy="-28.862499"
         r="2.2679999"
         gradientTransform="matrix(1.0725,0,0,0.9931,-411.9814,488.2964)"
         gradientUnits="userSpaceOnUse"><stop
           offset="0"
           style="stop-color:#FFF1E9"
           id="stop5894" /><stop
           offset="1"
           style="stop-color:#FFFFFF;stop-opacity:0.2"
           id="stop5896" /></radialGradient><path
         d="m 962.572,462.732 c 0.928,-2.845 1.096,-4.553 1.448,-6.199 -2.562,3.275 -1.179,3.974 -1.448,6.199"
         id="path5899"
         inkscape:connector-curvature="0"
         style="fill:url(#SVGID_13_)" /></g></g><g
     id="ray"
     transform="matrix(2,0,0,2,2.0000439,-1.9999988)"><linearGradient
       id="SVGID_14_"
       gradientUnits="userSpaceOnUse"
       x1="1208.9521"
       y1="6.9850998"
       x2="1604.0781"
       y2="6.9850998"
       gradientTransform="translate(-246.7598,486.0391)"><stop
         offset="0"
         style="stop-color:#FFFFFF;stop-opacity:0.5"
         id="stop5904" /><stop
         offset="1"
         style="stop-color:#FFFFFF;stop-opacity:0"
         id="stop5906" /></linearGradient><path
       stroke-miterlimit="10"
       d="m 1356.568,493.023 c 0,77.011 -88.115,139.441 -196.813,139.441 -108.698,0 -196.813,-62.433 -196.813,-139.441 0,-5.205 0.4,-10.342 1.187,-15.398 10.817,-69.765 94.274,-124.043 195.626,-124.041 108.698,0 196.813,62.428 196.813,139.439 z"
       id="path5909"
       inkscape:connector-curvature="0"
       style="fill:none;stroke:url(#SVGID_14_);stroke-width:1.5;stroke-miterlimit:10" /><linearGradient
       id="SVGID_15_"
       gradientUnits="userSpaceOnUse"
       x1="1245.6768"
       y1="-49.459702"
       x2="1357.8428"
       y2="-49.459702"
       gradientTransform="translate(-246.7598,486.0391)"><stop
         offset="0"
         style="stop-color:#FFFFFF;stop-opacity:0.5"
         id="stop5911" /><stop
         offset="1"
         style="stop-color:#FFFFFF;stop-opacity:0"
         id="stop5913" /></linearGradient><ellipse
       stroke-miterlimit="10"
       cx="1055"
       cy="436.57901"
       rx="55.333"
       ry="84.621002"
       id="ellipse5916"
       style="fill:none;stroke:url(#SVGID_15_);stroke-width:1.5;stroke-miterlimit:10" /><linearGradient
       id="SVGID_16_"
       gradientUnits="userSpaceOnUse"
       x1="1038.6631"
       y1="-21.777599"
       x2="1340.5713"
       y2="-21.777599"
       gradientTransform="translate(-246.7598,486.0391)"><stop
         offset="0"
         style="stop-color:#FFFFFF;stop-opacity:0.5"
         id="stop5918" /><stop
         offset="1"
         style="stop-color:#FFFFFF;stop-opacity:0"
         id="stop5920" /></linearGradient><ellipse
       stroke-miterlimit="10"
       cx="942.85699"
       cy="464.26099"
       rx="150.20399"
       ry="97.925003"
       id="ellipse5923"
       style="fill:none;stroke:url(#SVGID_16_);stroke-width:1.5;stroke-miterlimit:10" /><linearGradient
       id="SVGID_17_"
       gradientUnits="userSpaceOnUse"
       x1="1316.873"
       y1="31.4363"
       x2="1320.0908"
       y2="31.4363"
       gradientTransform="translate(-246.7598,486.0391)"><stop
         offset="0"
         style="stop-color:#FFFFFF;stop-opacity:0.5"
         id="stop5925" /><stop
         offset="1"
         style="stop-color:#FFFFFF;stop-opacity:0"
         id="stop5927" /></linearGradient><ellipse
       stroke-miterlimit="10"
       cx="1071.722"
       cy="517.47498"
       rx="1.109"
       ry="0.78399998"
       id="ellipse5930"
       style="fill:none;stroke:url(#SVGID_17_);stroke-miterlimit:10" /><linearGradient
       id="SVGID_18_"
       gradientUnits="userSpaceOnUse"
       x1="1020.4854"
       y1="97.240997"
       x2="1416.2158"
       y2="97.240997"
       gradientTransform="translate(-246.7598,486.0391)"><stop
         offset="0"
         style="stop-color:#FFFFFF;stop-opacity:0"
         id="stop5932" /><stop
         offset="1"
         style="stop-color:#FFFFFF;stop-opacity:0.5"
         id="stop5934" /></linearGradient><ellipse
       stroke-miterlimit="10"
       cx="971.591"
       cy="583.28003"
       rx="197.11501"
       ry="196.589"
       id="ellipse5937"
       style="fill:none;stroke:url(#SVGID_18_);stroke-width:1.5;stroke-miterlimit:10" /><radialGradient
       id="SVGID_19_"
       cx="1207.2949"
       cy="31.434799"
       r="210.4398"
       gradientTransform="translate(-246.7598,486.0391)"
       gradientUnits="userSpaceOnUse"><stop
         offset="0"
         style="stop-color:#FFFFFF;stop-opacity:0.5"
         id="stop5939" /><stop
         offset="1"
         style="stop-color:#FFFFFF;stop-opacity:0"
         id="stop5941" /></radialGradient><line
       stroke-miterlimit="10"
       x1="960.53497"
       y1="219.868"
       x2="960.53497"
       y2="815.08002"
       id="line5944"
       style="fill:none;stroke:url(#SVGID_19_);stroke-width:1.5;stroke-miterlimit:10" /><radialGradient
       id="SVGID_20_"
       cx="1220.8359"
       cy="2.3571999"
       r="201.6877"
       gradientTransform="translate(-246.7598,486.0391)"
       gradientUnits="userSpaceOnUse"><stop
         offset="0"
         style="stop-color:#FFFFFF;stop-opacity:0.5"
         id="stop5946" /><stop
         offset="1"
         style="stop-color:#FFFFFF;stop-opacity:0"
         id="stop5948" /></radialGradient><line
       stroke-miterlimit="10"
       x1="688.849"
       y1="488.396"
       x2="1259.3051"
       y2="488.396"
       id="line5951"
       style="fill:none;stroke:url(#SVGID_20_);stroke-width:1.5;stroke-miterlimit:10" /><linearGradient
       id="SVGID_21_"
       gradientUnits="userSpaceOnUse"
       x1="385.05371"
       y1="-808.23749"
       x2="580.62299"
       y2="-808.23749"
       gradientTransform="matrix(0.5366,0,0,0.4054,785.023,845.4514)"><stop
         offset="0"
         style="stop-color:#FFFFFF;stop-opacity:0.5"
         id="stop5953" /><stop
         offset="1"
         style="stop-color:#FFFFFF;stop-opacity:0"
         id="stop5955" /></linearGradient><ellipse
       stroke-miterlimit="10"
       cx="1044.114"
       cy="517.79199"
       rx="52.068001"
       ry="64.708"
       id="ellipse5958"
       style="fill:none;stroke:url(#SVGID_21_);stroke-width:1.5;stroke-miterlimit:10" /></g></svg>